<mxfile host="app.diagrams.net" agent="Mozilla/5.0 (Windows NT 10.0; Win64; x64) AppleWebKit/537.36 (KHTML, like Gecko) Chrome/135.0.0.0 Safari/537.36 Edg/135.0.0.0" version="26.2.9">
  <diagram id="_A8ZcILHH6F1geFjESHm" name="Page-1">
    <mxGraphModel dx="1036" dy="1636" grid="1" gridSize="10" guides="1" tooltips="1" connect="1" arrows="1" fold="1" page="1" pageScale="1" pageWidth="850" pageHeight="1100" math="0" shadow="0">
      <root>
        <mxCell id="0" />
        <mxCell id="1" parent="0" />
        <mxCell id="vseLJTIOPumeEbozTWmA-1" value="User" style="shape=umlActor;verticalLabelPosition=bottom;verticalAlign=top;html=1;outlineConnect=0;" parent="1" vertex="1">
          <mxGeometry x="180" y="-770" width="30" height="60" as="geometry" />
        </mxCell>
        <mxCell id="vseLJTIOPumeEbozTWmA-3" value="User authentication" style="ellipse;whiteSpace=wrap;html=1;" parent="1" vertex="1">
          <mxGeometry x="360" y="-1000" width="120" height="80" as="geometry" />
        </mxCell>
        <mxCell id="vseLJTIOPumeEbozTWmA-4" value="Profile management" style="ellipse;whiteSpace=wrap;html=1;" parent="1" vertex="1">
          <mxGeometry x="360" y="-910" width="120" height="80" as="geometry" />
        </mxCell>
        <mxCell id="vseLJTIOPumeEbozTWmA-5" value="Expense&amp;nbsp;&lt;div&gt;&amp;amp;&lt;/div&gt;&lt;div&gt;Income tracking&lt;/div&gt;" style="ellipse;whiteSpace=wrap;html=1;" parent="1" vertex="1">
          <mxGeometry x="360" y="-730" width="120" height="80" as="geometry" />
        </mxCell>
        <mxCell id="vseLJTIOPumeEbozTWmA-6" value="Budget management" style="ellipse;whiteSpace=wrap;html=1;" parent="1" vertex="1">
          <mxGeometry x="360" y="-640" width="120" height="80" as="geometry" />
        </mxCell>
        <mxCell id="vseLJTIOPumeEbozTWmA-7" value="Report&lt;div&gt;and&lt;/div&gt;&lt;div&gt;Insight&lt;/div&gt;" style="ellipse;whiteSpace=wrap;html=1;" parent="1" vertex="1">
          <mxGeometry x="360" y="-550" width="120" height="80" as="geometry" />
        </mxCell>
        <mxCell id="vseLJTIOPumeEbozTWmA-8" value="Data export&lt;div&gt;&amp;amp;&lt;/div&gt;&lt;div&gt;Backup&lt;/div&gt;" style="ellipse;whiteSpace=wrap;html=1;" parent="1" vertex="1">
          <mxGeometry x="360" y="-460" width="120" height="80" as="geometry" />
        </mxCell>
        <mxCell id="vseLJTIOPumeEbozTWmA-20" value="" style="endArrow=none;html=1;rounded=0;entryX=0;entryY=0.5;entryDx=0;entryDy=0;" parent="1" target="vseLJTIOPumeEbozTWmA-3" edge="1">
          <mxGeometry width="50" height="50" relative="1" as="geometry">
            <mxPoint x="210" y="-750" as="sourcePoint" />
            <mxPoint x="330" y="-820" as="targetPoint" />
          </mxGeometry>
        </mxCell>
        <mxCell id="vseLJTIOPumeEbozTWmA-21" value="" style="endArrow=none;html=1;rounded=0;entryX=0;entryY=0.5;entryDx=0;entryDy=0;exitX=1;exitY=0.3333333333333333;exitDx=0;exitDy=0;exitPerimeter=0;" parent="1" source="vseLJTIOPumeEbozTWmA-1" target="vseLJTIOPumeEbozTWmA-4" edge="1">
          <mxGeometry width="50" height="50" relative="1" as="geometry">
            <mxPoint x="220" y="-750" as="sourcePoint" />
            <mxPoint x="380" y="-960" as="targetPoint" />
          </mxGeometry>
        </mxCell>
        <mxCell id="vseLJTIOPumeEbozTWmA-22" value="" style="endArrow=none;html=1;rounded=0;entryX=0;entryY=0.5;entryDx=0;entryDy=0;" parent="1" target="vseLJTIOPumeEbozTWmA-5" edge="1">
          <mxGeometry width="50" height="50" relative="1" as="geometry">
            <mxPoint x="210" y="-750" as="sourcePoint" />
            <mxPoint x="390" y="-875" as="targetPoint" />
          </mxGeometry>
        </mxCell>
        <mxCell id="vseLJTIOPumeEbozTWmA-24" value="" style="endArrow=none;html=1;rounded=0;entryX=0;entryY=0.5;entryDx=0;entryDy=0;exitX=1;exitY=0.3333333333333333;exitDx=0;exitDy=0;exitPerimeter=0;" parent="1" source="vseLJTIOPumeEbozTWmA-1" target="vseLJTIOPumeEbozTWmA-6" edge="1">
          <mxGeometry width="50" height="50" relative="1" as="geometry">
            <mxPoint x="240" y="-730" as="sourcePoint" />
            <mxPoint x="400" y="-940" as="targetPoint" />
          </mxGeometry>
        </mxCell>
        <mxCell id="vseLJTIOPumeEbozTWmA-25" value="" style="endArrow=none;html=1;rounded=0;entryX=0;entryY=0.5;entryDx=0;entryDy=0;exitX=1;exitY=0.3333333333333333;exitDx=0;exitDy=0;exitPerimeter=0;" parent="1" source="vseLJTIOPumeEbozTWmA-1" target="vseLJTIOPumeEbozTWmA-7" edge="1">
          <mxGeometry width="50" height="50" relative="1" as="geometry">
            <mxPoint x="250" y="-720" as="sourcePoint" />
            <mxPoint x="410" y="-930" as="targetPoint" />
          </mxGeometry>
        </mxCell>
        <mxCell id="vseLJTIOPumeEbozTWmA-26" value="" style="endArrow=none;html=1;rounded=0;entryX=0;entryY=0.5;entryDx=0;entryDy=0;exitX=1;exitY=0.3333333333333333;exitDx=0;exitDy=0;exitPerimeter=0;" parent="1" source="vseLJTIOPumeEbozTWmA-1" target="vseLJTIOPumeEbozTWmA-8" edge="1">
          <mxGeometry width="50" height="50" relative="1" as="geometry">
            <mxPoint x="260" y="-710" as="sourcePoint" />
            <mxPoint x="420" y="-920" as="targetPoint" />
          </mxGeometry>
        </mxCell>
        <mxCell id="vseLJTIOPumeEbozTWmA-27" value="&lt;font style=&quot;font-size: 14px;&quot;&gt;Payap&#39;s core features&lt;/font&gt;" style="text;html=1;align=center;verticalAlign=middle;resizable=0;points=[];autosize=1;strokeColor=none;fillColor=none;" parent="1" vertex="1">
          <mxGeometry x="350" y="-1060" width="160" height="30" as="geometry" />
        </mxCell>
        <mxCell id="UtUoHx78VdA8i8aFVQQR-1" value="Transaction" style="ellipse;whiteSpace=wrap;html=1;" parent="1" vertex="1">
          <mxGeometry x="360" y="-820" width="120" height="80" as="geometry" />
        </mxCell>
        <mxCell id="UtUoHx78VdA8i8aFVQQR-2" value="" style="endArrow=none;html=1;rounded=0;entryX=0;entryY=0.5;entryDx=0;entryDy=0;exitX=1;exitY=0.3333333333333333;exitDx=0;exitDy=0;exitPerimeter=0;" parent="1" source="vseLJTIOPumeEbozTWmA-1" target="UtUoHx78VdA8i8aFVQQR-1" edge="1">
          <mxGeometry width="50" height="50" relative="1" as="geometry">
            <mxPoint x="210" y="-750" as="sourcePoint" />
            <mxPoint x="450" y="-660" as="targetPoint" />
          </mxGeometry>
        </mxCell>
        <mxCell id="UtUoHx78VdA8i8aFVQQR-3" value="" style="rounded=0;whiteSpace=wrap;html=1;fillColor=none;" parent="1" vertex="1">
          <mxGeometry x="320" y="-1080" width="200" height="720" as="geometry" />
        </mxCell>
      </root>
    </mxGraphModel>
  </diagram>
</mxfile>
